<svg width="247" height="237" viewBox="0 0 247 237" fill="none" xmlns="http://www.w3.org/2000/svg">
<path d="M129.539 235.057C194.348 235.057 246.886 182.608 246.886 117.909C246.886 53.2097 194.348 0.760742 129.539 0.760742C64.7299 0.760742 12.1919 53.2097 12.1919 117.909C12.1919 182.608 64.7299 235.057 129.539 235.057Z" fill="url(#paint0_linear_3431_10443)"/>
<path d="M201.547 79.0901C221.356 79.0901 237.414 63.0591 237.414 43.2839C237.414 23.5087 221.356 7.47766 201.547 7.47766C181.738 7.47766 165.68 23.5087 165.68 43.2839C165.68 63.0591 181.738 79.0901 201.547 79.0901Z" fill="#DF4A32"/>
<path d="M35.867 208.942C55.6758 208.942 71.734 192.911 71.734 173.136C71.734 153.36 55.6758 137.329 35.867 137.329C16.0582 137.329 0 153.36 0 173.136C0 192.911 16.0582 208.942 35.867 208.942Z" fill="#FFD233"/>
<path d="M91.0886 185.702C91.0886 185.702 51.465 192.998 49.3543 205.587C51.2897 208.698 84.7031 236.776 128.807 236.015C172.911 235.254 205.007 208.189 205.007 208.189C205.007 208.189 200.915 195.082 163.928 185.725C126.94 176.369 91.0886 185.702 91.0886 185.702Z" fill="#DB8077"/>
<path d="M115.366 170.131L110.032 184.272C110.032 184.272 113.08 194.998 128.32 194.922C143.559 194.846 145.426 184.272 145.426 184.272L140.092 170.131H115.366Z" fill="#EDC1A7"/>
<path d="M91.0886 185.702C91.0886 185.702 102.412 215.522 127.718 215.971C127.718 205.998 128.32 187.604 128.32 187.604L110.032 184.272L105.109 179.708C105.109 179.708 89.1379 181.443 91.0886 185.702Z" fill="#EDC1A7"/>
<path d="M163.958 185.702C163.958 185.702 152.65 215.56 127.337 215.971C127.337 205.998 126.727 187.604 126.727 187.604L145.015 184.272L149.945 179.708C149.945 179.708 165.916 181.443 163.958 185.702Z" fill="#EDC1A7"/>
<path d="M165.543 87.4046C165.36 59.3651 130.712 55.4095 128.381 55.1813H128.266C125.935 55.4095 91.2868 59.3651 91.0963 87.4046C91.0963 87.4046 85.3966 172.945 128.266 173.364H128.388C171.25 172.961 165.543 87.4046 165.543 87.4046Z" fill="#EDC1A7"/>
<path d="M144.558 61.3582C144.558 61.3582 140.169 78.976 124.952 87.3133C109.735 95.6505 85.709 102.794 101.398 154.749C94.7843 138.661 81.5866 113.611 98.8381 92.6154C116.09 71.62 144.558 61.3582 144.558 61.3582Z" fill="#E49A71"/>
<path d="M115.366 170.131C115.366 170.131 121.942 173.432 128.381 173.371C132.479 173.245 136.486 172.133 140.062 170.131L98.1523 198.36C98.1523 198.36 92.6202 190.928 91.0734 185.702C89.5265 180.476 107.296 181.237 109.986 184.272L115.366 170.131Z" fill="#E49A71"/>
<path d="M127.972 39.603C127.972 39.603 72.4519 36.0441 72.4519 91.1889C72.4519 101.515 72.4519 115.736 77.0786 124.739C81.7052 133.742 69.3927 156.572 63.1834 160.876C56.9742 165.18 56.5577 185.569 65.8565 190.75C75.1552 195.932 98.2961 177.852 109.776 184.246L115.076 170.661C115.076 170.661 94.4797 163.945 90.7011 108.545C88.1568 83.4134 103.37 63.6165 128.01 60.2037C128.032 44.7623 127.972 39.603 127.972 39.603Z" fill="#332837"/>
<path d="M124.069 40.0468C124.069 40.0468 180.13 36.4678 180.13 91.9241C180.13 102.308 180.13 116.61 175.458 125.664C170.787 134.718 183.219 157.677 189.458 162.005C195.698 166.334 196.149 186.838 186.759 192.048C177.37 197.259 154.003 179.077 142.412 185.508L137.06 171.846C137.06 171.846 157.865 165.092 161.672 109.378C164.241 84.1047 148.88 64.1959 124 60.7639C124.008 45.2352 124.069 40.0468 124.069 40.0468Z" fill="#332837"/>
<path d="M144.558 61.3582C144.558 61.3582 136.648 80.9158 108.066 92.547C79.4835 104.178 101.398 154.75 101.398 154.75C101.398 154.75 105.574 170.351 91.0886 173.371C93.4813 166.206 93.8166 157.762 87.9797 148.443C82.1428 139.125 60.9442 95.9549 95.752 61.3582C114.398 45.2618 136.1 44.1435 144.558 61.3582Z" fill="#3C323F"/>
<path d="M98.1675 198.36L65.5542 217.918C65.5542 217.918 53.2709 210.44 49.3543 205.587C50.223 201.107 54.6882 196.938 68.4041 191.841C82.12 186.745 91.0886 185.702 91.0886 185.702C91.0886 185.702 93.847 193.454 98.1675 198.36Z" fill="#873E3B"/>
<path d="M101.398 154.75C101.398 154.75 103.364 170.397 91.0886 173.371C78.8129 176.346 79.9407 188.106 79.9407 188.106C79.9407 188.106 87.6521 185.953 91.0886 185.702C94.3347 184.622 102.839 180.986 110.001 184.272L115.335 170.131C115.335 170.131 109.613 168.648 101.398 154.75Z" fill="#262124"/>
<path d="M154.28 155C154.28 155 159.959 176.176 165.404 181.681C170.849 187.186 171 188 171 188C171 188 151.621 179.94 145.272 184.223L140 171.17C140 171.17 148.405 167.701 154.28 155Z" fill="#262124"/>
<g clip-path="url(#clip0_3431_10443)">
<path d="M130.925 105.831C132.856 100.939 137.763 97.0082 143.036 99.5352C144.566 100.281 145.957 101.328 147.011 102.653C145.851 101.443 144.436 100.483 142.914 99.8128C137.747 97.512 133.194 101.316 130.925 105.831Z" fill="black"/>
<path d="M129.978 107.949C129.726 108.393 129.286 108.802 129.14 109.274C129.14 109.282 129.14 109.294 129.14 109.286C129.125 109.27 129.156 109.314 129.176 109.338C129.486 109.726 129.769 110.123 129.982 110.587C129.561 110.305 129.207 109.944 128.869 109.572C128.838 109.56 128.723 109.361 128.751 109.254C128.9 108.608 129.451 108.251 129.982 107.953L129.978 107.949Z" fill="black"/>
<path fill-rule="evenodd" clip-rule="evenodd" d="M152.139 108.042L150.22 109.624L150.07 109.439L151.988 107.857L152.139 108.042Z" fill="black"/>
<path d="M133.572 100.892C135.152 98.4324 138.459 97.8969 141.141 98.3293C141.53 98.4165 141.919 98.4919 142.305 98.5951C141.514 98.5514 140.736 98.4999 139.949 98.5118C137.657 98.5673 135.203 99.1425 133.576 100.892H133.572Z" fill="black"/>
<path d="M111.784 122.127C112.614 119.822 114.002 116.922 116.699 116.561C118.005 116.541 119.279 116.934 120.486 117.39C121.846 118.093 122.617 117.95 123.875 117.085C125.983 115.613 128.708 114.653 131.232 115.625C133.678 116.49 135.679 118.291 137.252 120.31C135.577 118.426 133.548 116.692 131.138 115.915C127.945 114.895 125.861 116.307 123.234 117.91C122.637 118.223 121.886 118.342 121.241 118.1C120.922 117.989 120.639 117.847 120.344 117.728C119.196 117.275 117.95 116.899 116.715 116.867C114.148 117.148 112.72 119.977 111.781 122.131L111.784 122.127Z" fill="black"/>
<path d="M130.312 113.467C132.231 116.978 136.414 118.307 140.177 118.323C141.416 118.319 142.784 118.259 143.968 117.89C145.611 117.41 147.153 116.581 148.521 115.538C147.247 116.716 145.718 117.625 144.058 118.18C142.859 118.62 141.44 118.672 140.177 118.7C136.359 118.731 131.963 117.224 130.312 113.467Z" fill="black"/>
<path d="M142.556 119.005C140.122 119.905 136.741 120.132 134.916 117.938C137.083 119.644 139.997 119.338 142.556 119.005Z" fill="black"/>
<path d="M123.054 108.881C123.71 109.314 123.639 110.345 123.105 110.849C122.9 111.051 122.271 111.5 122.696 110.94C123.113 110.305 123.325 109.667 123.054 108.881Z" fill="black"/>
<path d="M130.123 109.27C130.123 109.27 133.532 102.451 139.717 102.768C145.902 103.086 149.343 108.405 149.532 109.806C149.72 111.206 146.539 117.279 139.827 116.938C133.116 116.597 130.556 110.317 130.123 109.27Z" fill="white"/>
<path fill-rule="evenodd" clip-rule="evenodd" d="M130.254 109.276C130.746 110.464 133.303 116.487 139.833 116.819C143.149 116.987 145.591 115.573 147.182 113.941C147.979 113.125 148.561 112.256 148.932 111.506C149.118 111.131 149.25 110.787 149.33 110.496C149.41 110.203 149.434 109.973 149.414 109.822C149.37 109.498 149.131 108.921 148.688 108.224C148.248 107.532 147.613 106.734 146.792 105.969C145.151 104.438 142.77 103.045 139.711 102.888C136.667 102.732 134.299 104.331 132.686 105.984C131.88 106.81 131.265 107.646 130.852 108.275C130.645 108.59 130.489 108.853 130.385 109.037C130.333 109.129 130.294 109.201 130.268 109.25C130.263 109.259 130.258 109.268 130.254 109.276ZM132.516 105.816C134.153 104.139 136.583 102.488 139.723 102.649C142.85 102.809 145.282 104.234 146.954 105.793C147.79 106.573 148.437 107.387 148.888 108.095C149.337 108.8 149.599 109.413 149.649 109.79C149.676 109.988 149.642 110.254 149.559 110.56C149.474 110.868 149.336 111.226 149.145 111.612C148.763 112.384 148.166 113.274 147.352 114.109C145.723 115.779 143.218 117.23 139.821 117.058C133.067 116.714 130.474 110.431 130.021 109.334C130.018 109.328 130.016 109.322 130.013 109.316L129.993 109.265L130.017 109.216L130.123 109.27C130.017 109.216 130.017 109.216 130.017 109.216L130.017 109.216L130.018 109.215L130.02 109.211L130.028 109.196C130.035 109.182 130.045 109.163 130.058 109.137C130.085 109.086 130.125 109.012 130.179 108.918C130.285 108.731 130.444 108.463 130.653 108.144C131.073 107.505 131.697 106.656 132.516 105.816Z" fill="black"/>
<path d="M145.706 109.532C145.997 109.532 146.233 109.294 146.233 109C146.233 108.707 145.997 108.469 145.706 108.469C145.415 108.469 145.179 108.707 145.179 109C145.179 109.294 145.415 109.532 145.706 109.532Z" fill="black"/>
<path d="M104.428 102.756C108.839 98.7458 116.157 96.2546 120.447 101.784C121.339 102.856 121.976 104.109 122.519 105.386C121.685 103.744 120.651 102.189 119.302 100.979C114.906 96.9924 108.541 99.6146 104.428 102.756Z" fill="black"/>
<path d="M114.553 98.0953C111.686 98.2539 108.875 99.0394 106.421 100.563C108.56 98.5673 111.686 97.6946 114.553 98.0953Z" fill="black"/>
<path fill-rule="evenodd" clip-rule="evenodd" d="M153.834 109.651L150.937 109.972L150.911 109.734L153.808 109.413L153.834 109.651Z" fill="black"/>
<path fill-rule="evenodd" clip-rule="evenodd" d="M150.767 110.682L148.841 112.154L148.697 111.964L150.624 110.492L150.767 110.682Z" fill="black"/>
<path d="M97.413 110.484C97.877 109.75 98.5218 109.215 99.3279 108.901C98.8639 109.639 98.219 110.167 97.413 110.484Z" fill="black"/>
<path d="M97.0905 109.234C97.4051 108.81 97.8416 108.631 98.3606 108.711C98.046 109.135 97.6096 109.314 97.0905 109.234Z" fill="black"/>
<path d="M97.4759 106.628C98.1797 106.969 98.7027 107.505 99.0212 108.227C98.3134 107.89 97.7944 107.346 97.4759 106.628Z" fill="black"/>
<path d="M101.86 114.844C106.201 119.14 112.032 118.91 116.943 115.728C117.478 115.387 118.532 114.649 119.035 114.264C119.365 113.995 119.7 113.729 120.038 113.463C118.823 114.669 117.478 115.764 115.988 116.629C111.364 119.469 105.478 119.14 101.86 114.84V114.844Z" fill="black"/>
<path d="M107.955 119.683C110.396 119.445 112.925 119.005 114.895 117.422C113.29 119.449 110.393 120.013 107.955 119.683Z" fill="black"/>
<path d="M106.905 118.763C108.305 118.83 109.653 118.906 110.947 118.311C109.952 119.41 108.155 119.39 106.905 118.763Z" fill="black"/>
<path d="M122.515 109.853C122.515 109.853 121.095 101.63 113.035 101.562C104.974 101.495 100.448 109.234 100.448 109.234C100.448 109.234 100.873 109.286 101.561 110.48C102.249 111.674 104.432 116.272 110.947 116.339C117.462 116.407 122.515 109.849 122.515 109.849V109.853Z" fill="white"/>
<path fill-rule="evenodd" clip-rule="evenodd" d="M103.64 105.284C105.791 103.346 108.965 101.409 113.036 101.443C117.115 101.477 119.518 103.578 120.897 105.667C121.585 106.71 122.018 107.75 122.28 108.529C122.41 108.919 122.498 109.243 122.554 109.471C122.562 109.508 122.57 109.541 122.578 109.573L122.634 109.5V109.853L122.531 109.862C122.574 109.896 122.593 109.91 122.602 109.917C122.609 109.923 122.609 109.923 122.609 109.923L122.608 109.923L122.608 109.924L122.605 109.928L122.593 109.942C122.583 109.955 122.569 109.974 122.549 109.998C122.51 110.047 122.452 110.118 122.376 110.208C122.224 110.389 121.999 110.646 121.71 110.955C121.131 111.572 120.292 112.394 119.247 113.214C117.161 114.852 114.242 116.493 110.946 116.459C107.657 116.425 105.455 115.246 103.989 113.921C102.689 112.745 101.97 111.455 101.586 110.767C101.539 110.682 101.496 110.606 101.458 110.54C101.119 109.951 100.849 109.652 100.67 109.501C100.581 109.426 100.516 109.388 100.476 109.37C100.456 109.36 100.442 109.356 100.435 109.354C100.433 109.353 100.432 109.353 100.431 109.353L100.254 109.331L100.346 109.174L100.448 109.234C100.346 109.174 100.346 109.174 100.346 109.174L100.346 109.173L100.347 109.172L100.35 109.167C100.352 109.164 100.355 109.158 100.36 109.15C100.369 109.135 100.383 109.113 100.4 109.084C100.436 109.027 100.489 108.943 100.56 108.836C100.7 108.622 100.91 108.318 101.187 107.954C101.741 107.224 102.563 106.253 103.64 105.284ZM100.623 109.177C100.678 109.207 100.745 109.252 100.823 109.318C101.029 109.491 101.315 109.815 101.664 110.42C101.703 110.487 101.746 110.565 101.794 110.651C102.178 111.339 102.879 112.595 104.148 113.743C105.574 115.032 107.721 116.186 110.948 116.22C114.167 116.253 117.032 114.649 119.101 113.025C120.134 112.214 120.965 111.401 121.537 110.791C121.823 110.486 122.045 110.231 122.194 110.054C122.269 109.965 122.326 109.895 122.364 109.848C122.373 109.837 122.381 109.827 122.387 109.819C122.385 109.809 122.383 109.797 122.381 109.785C122.368 109.726 122.35 109.639 122.323 109.528C122.269 109.306 122.183 108.988 122.054 108.605C121.798 107.84 121.373 106.82 120.699 105.799C119.352 103.76 117.016 101.715 113.034 101.682C109.044 101.649 105.924 103.547 103.798 105.462C102.735 106.419 101.923 107.379 101.376 108.099C101.103 108.459 100.896 108.759 100.758 108.968C100.702 109.053 100.657 109.124 100.623 109.177Z" fill="black"/>
<path d="M109.398 123.266C107.915 127.24 107.231 131.6 107.849 135.821C108.23 139.01 109.107 142.112 109.673 145.27C109.838 146.329 109.936 147.424 109.724 148.483C109.842 147.416 109.708 146.349 109.48 145.306C108.658 141.648 107.561 138.026 107.29 134.262C107.082 130.505 107.817 126.673 109.394 123.266H109.398Z" fill="black"/>
<path d="M105.037 135.238C106.818 138.998 108.088 143.172 107.955 147.377C107.884 146.853 107.856 146.333 107.762 145.821C107.239 142.208 106.154 138.705 105.037 135.238Z" fill="black"/>
<path d="M118.536 158.69C118.976 160.023 119.935 159.603 120.899 159.206C123.23 158.329 125.633 157.393 128.157 157.33C128.649 157.353 129.215 157.393 129.592 157.75C129.172 157.472 128.645 157.488 128.165 157.524C126.687 157.659 125.263 158.135 123.844 158.567L121.001 159.492L120.281 159.71C119.456 160.011 118.634 159.611 118.536 158.69Z" fill="black"/>
<path d="M125.68 160.162C125.495 159.872 125.2 159.73 124.913 159.607C123.993 159.246 123.002 159.198 122.043 158.964C123.144 158.706 125.346 158.813 125.68 160.162Z" fill="black"/>
<path d="M119.059 160.162C118.697 164.45 120.989 167.846 125.043 169.111C128.495 170.357 132.07 169.385 133.965 166.097C132.789 168.742 129.86 170.325 126.997 169.948C126.584 169.865 125.999 169.81 125.605 169.683C125.377 169.611 124.807 169.449 124.587 169.381C123.832 169.088 123.057 168.703 122.369 168.262C119.731 166.493 118.504 163.264 119.059 160.166V160.162Z" fill="black"/>
<path d="M123.05 161.42C123.238 162.217 123.423 162.919 124.39 162.788C124.504 162.776 124.622 162.76 124.748 162.76C124.654 162.84 124.552 162.907 124.442 162.975C123.36 163.53 122.633 162.395 123.05 161.42Z" fill="black"/>
<path d="M122.499 164.99C122.601 165.236 122.645 165.501 122.774 165.7C122.904 165.898 123.124 165.89 123.372 165.954C122.692 166.616 121.996 165.636 122.499 164.99Z" fill="black"/>
<path d="M126.62 166.949C126.864 167.176 127.06 167.386 127.245 167.425C127.477 167.497 127.752 167.338 127.992 167.279C127.685 168.187 126.522 167.87 126.62 166.949Z" fill="black"/>
<path d="M139.419 122.127C145.745 125.213 148.895 139.542 149.897 146.135C150.251 148.174 150.448 150.237 150.696 152.288C150.239 149.614 149.811 146.813 149.26 144.147C148.053 138.102 145.01 125.197 139.419 122.123V122.127Z" fill="black"/>
<path d="M147 130C149.174 135.304 150.334 141.04 150.527 146.772C149.796 141.096 148.663 135.478 147 130Z" fill="black"/>
<path d="M112.178 123.92C112.178 123.92 113.849 119.707 116.998 120.937C120.148 122.167 119.833 123.055 124.52 122.127C129.207 121.199 131.759 118.735 134.916 120.711C138.074 122.686 145.218 129.236 147.011 147.972C147.456 156.917 142.187 160.487 136.147 158.964C132.935 157.825 129.608 155.429 129.608 155.429C129.608 155.429 126.997 153.16 123.895 154.327C120.793 155.493 116.487 160.035 114.041 158.964C111.596 157.893 110.609 155.751 111.427 148.817C112.244 141.882 109.881 139.169 109.811 135.242C109.74 131.314 110.833 126.007 112.182 123.924L112.178 123.92Z" fill="black"/>
<path d="M128.358 129.668C128.358 129.668 125.928 127.808 124.489 130.335C123.05 132.862 124.064 133.925 123.867 135.872C123.671 137.82 121.418 142.541 124.489 143.207C127.56 143.874 130.029 141.716 129.852 135.238C129.86 138.487 128.885 141.918 128.885 141.918C128.885 141.918 129.431 147.305 134.901 145.925C140.37 144.544 141.381 135.531 141.381 135.531C141.381 135.531 140.276 145.266 137.637 148.479C134.999 151.693 133.462 153.454 133.462 153.454L145.655 154.7C145.655 154.7 148.564 149.249 145.655 140.3C142.745 131.35 140.846 124.614 138.306 126.951C135.766 129.287 135.911 133.246 135.911 133.246C135.911 133.246 135.974 128.613 137.688 127.046C136.489 126.713 132.459 127.189 132.793 133.342L133.127 137.967C133.127 137.967 131.26 123.091 127.394 131.814C127.575 131.418 128.358 129.668 128.358 129.668Z" fill="#91281F"/>
<path d="M128.358 129.668C127.387 128.95 125.873 128.692 125 129.684C124.202 130.604 123.718 131.854 123.742 133.08C123.816 134.309 124.127 135.575 123.75 136.797C123.392 138.546 122.523 140.466 123.227 142.212C123.808 143.322 125.373 143.35 126.447 143.108C127.646 142.811 128.495 141.807 128.967 140.696C129.671 138.979 129.769 137.086 129.738 135.246H129.962C129.962 136.384 129.86 137.515 129.691 138.633C129.53 139.681 129.266 141.065 129.007 141.914C129.404 144.802 131.598 146.587 134.492 145.869C138.966 144.965 140.606 139.514 141.223 135.519L141.534 135.555C140.991 139.502 140.354 143.529 138.668 147.166C138.239 148.075 137.472 148.983 136.819 149.737L133.599 153.585L133.477 153.267L145.67 154.517L145.49 154.612C146.779 151.748 146.968 148.412 146.602 145.306C146.248 142.14 145.077 139.141 144.129 136.087C143.634 134.567 143.134 133.052 142.576 131.556C142.006 130.097 141.44 128.557 140.468 127.328C140.221 127.042 139.934 126.764 139.592 126.665C138.526 126.383 137.626 127.895 137.134 128.688C136.387 130.065 136.041 131.671 136.037 133.238H135.789C135.939 131.084 136.08 128.625 137.614 126.959L137.661 127.153C135.64 126.721 133.717 128.216 133.214 130.168C132.522 132.445 133.131 135.595 133.206 137.959L133.057 137.975C132.612 135.206 132.27 132.243 130.788 129.815C129.345 127.78 127.984 130.616 127.387 131.81L128.362 129.668H128.358ZM128.358 129.668L127.402 131.818L127.383 131.81C130.776 124.051 132.785 134.789 133.198 137.955L133.049 137.971L132.777 134.484C132.561 132.227 132.553 129.482 134.386 127.859C135.329 127.018 136.674 126.653 137.917 126.982C137.044 127.736 136.67 128.906 136.414 130.009C136.179 131.068 136.061 132.163 136.029 133.25H135.781C135.781 131.628 136.127 130.005 136.898 128.569C137.716 127.137 139.171 125.281 140.673 127.157C142.564 129.755 143.339 133.008 144.412 135.999C145.379 139.05 146.551 142.069 146.929 145.274C147.314 148.511 147.137 151.899 145.757 154.91L145.627 154.898L133.434 153.656L133.076 153.62L133.312 153.343L136.54 149.511C137.177 148.773 137.932 147.892 138.349 147.012C140.024 143.425 140.669 139.427 141.215 135.527L141.526 135.563C141.278 137.348 140.818 139.09 140.13 140.748C139.426 142.394 138.459 144.001 137 145.076C135.549 146.139 133.599 146.575 131.853 146.091C130.045 145.572 128.995 143.735 128.751 141.946C129.026 140.851 129.282 139.728 129.447 138.606C129.62 137.495 129.722 136.372 129.726 135.254H129.95C129.978 137.118 129.868 139.042 129.144 140.791C128.267 143.021 125.885 144.112 123.714 143.013C121.882 141.696 123.278 138.562 123.635 136.789C124.217 134.976 123.187 133.04 124.005 131.267C124.791 129.144 126.388 128.319 128.346 129.684L128.358 129.668Z" fill="black"/>
<path d="M143.292 140.811C144.381 144.171 145.01 147.821 144.44 151.34C144.471 147.805 143.854 144.294 143.292 140.811Z" fill="black"/>
<path d="M139.139 152.645C141.231 150.284 142.324 147.194 142.415 144.044C142.458 144.437 142.509 144.838 142.517 145.238C142.564 148.031 141.341 150.915 139.139 152.645Z" fill="black"/>
<path fill-rule="evenodd" clip-rule="evenodd" d="M143.409 151.184C143.409 151.184 143.409 151.184 143.292 151.165L143.174 151.146L143.174 151.146L143.174 151.145L143.175 151.141L143.178 151.123C143.18 151.108 143.183 151.085 143.187 151.055C143.195 150.996 143.207 150.91 143.218 150.802C143.242 150.586 143.268 150.285 143.278 149.944C143.299 149.258 143.256 148.426 143.012 147.801L143.233 147.714C143.496 148.386 143.537 149.258 143.516 149.951C143.505 150.3 143.479 150.608 143.455 150.828C143.443 150.938 143.431 151.027 143.423 151.088C143.419 151.119 143.415 151.143 143.413 151.159L143.41 151.177L143.409 151.182L143.409 151.184L143.409 151.184Z" fill="black"/>
<path d="M118.327 122.611C118.327 122.611 117.273 120.612 115.539 120.731C113.805 120.85 113.609 124.257 113.609 124.257C113.609 124.257 113.145 126.725 115.858 126.772C118.571 126.82 118.504 124.991 118.504 124.991C118.504 124.991 117.91 127.082 120.466 127.149C123.022 127.216 124.127 126.491 124.304 123.94C124.658 125.483 124.524 126.483 127.237 126.352C129.95 126.221 131.094 125.193 130.874 122.528C131.228 124.309 131.338 125.332 133.564 125.086C135.789 124.84 136.092 123.682 136.009 122.551C135.927 121.421 135.042 120.219 133.076 120.171C131.11 120.124 130.851 120.949 130.851 120.949C130.851 120.949 130.654 120.02 128.767 120.853C126.879 121.687 121.512 123.614 119.161 121.936C118.095 121.417 118.327 122.619 118.327 122.619V122.611Z" fill="white"/>
<path d="M118.327 122.611C117.309 120.782 114.836 119.727 114.065 122.353C113.648 123.757 113.172 126.042 115.028 126.542C116.259 126.84 118.288 126.582 118.363 124.999L118.65 125.035C118.575 125.372 118.575 125.765 118.709 126.078C119.192 127.165 120.6 126.998 121.618 126.939C122.334 126.863 123.081 126.633 123.518 126.03C124.158 125.174 124.119 123.821 124.217 122.774L124.481 123.9C124.583 124.34 124.65 124.785 124.78 125.181C125.24 126.51 126.942 126.157 128.075 126.078C130.147 125.832 130.89 124.527 130.689 122.543L131.063 122.492C131.295 123.706 131.421 125.031 132.97 124.936C133.835 124.912 134.818 124.797 135.435 124.138C135.998 123.476 135.962 122.416 135.585 121.663C135.007 120.56 133.662 120.239 132.494 120.338C131.975 120.377 131.24 120.52 130.984 120.992L130.823 121.337C130.764 121.163 130.741 120.869 130.552 120.762C129.746 120.381 128.896 120.996 128.114 121.254C126.195 121.988 124.182 122.567 122.122 122.651C121.103 122.678 120.022 122.539 119.157 121.956C118.547 121.623 118.225 121.956 118.335 122.623L118.327 122.611ZM118.327 122.611C118.201 121.94 118.52 121.583 119.173 121.913C120.042 122.468 121.103 122.579 122.114 122.528C124.151 122.393 126.132 121.774 128.028 121.028C128.739 120.758 129.467 120.298 130.284 120.381C130.56 120.421 130.882 120.564 130.988 120.913L130.725 120.901C131.334 119.79 133.34 119.894 134.386 120.235C136.021 120.731 136.804 123.008 135.695 124.368C135.003 125.122 133.922 125.265 132.966 125.296C132.644 125.296 132.306 125.273 131.979 125.134C130.977 124.729 130.89 123.44 130.689 122.559L131.063 122.508C131.303 124.705 130.383 126.205 128.126 126.459C126.872 126.586 124.917 126.84 124.434 125.3C124.288 124.848 124.229 124.408 124.131 123.983L124.485 123.956C124.426 125.106 124.025 126.538 122.818 127.002C122.071 127.312 121.264 127.335 120.478 127.324C119.983 127.3 119.452 127.224 119.015 126.935C117.832 126.149 118.441 124.705 118.681 123.603L118.65 124.987C118.547 126.879 116.141 127.193 114.733 126.681C113.758 126.36 113.338 125.15 113.518 124.253C113.625 123.265 113.821 122.246 114.387 121.413C115.532 119.771 117.675 121.238 118.331 122.611H118.327Z" fill="black"/>
<path d="M115.39 158.543C115.39 158.543 114.415 158.167 114.415 153.672C114.851 152.819 118.296 151.47 118.492 154.703C118.492 153.311 119.098 152.081 122.432 152.653C122.877 152.998 122.483 152.284 123.816 152.125C125.149 151.966 126.84 152.125 126.84 152.125V153.089L127.552 151.772C127.552 151.772 133.34 151.383 132.986 154.481C133.296 153.133 133.387 152.776 135.746 152.684C138.105 152.593 137.795 155.148 137.795 155.148C137.795 155.148 136.859 152.593 140.201 152.637C143.543 152.68 143.319 155.148 143.319 155.148C143.319 155.148 143.276 152.668 146.319 153.121C146.319 153.121 144.164 158.476 142.828 156.635C141.715 157.667 140.02 159.333 137.527 156.679C136.104 157.579 134.944 158.924 132.895 156.005C132.227 156.183 132.085 156.516 132.085 156.516C132.085 156.516 126.124 149.582 118.933 156.457C117.533 156.592 117.8 155.691 117.8 155.691C117.8 155.691 118.103 158.111 115.39 158.539V158.543Z" fill="white"/>
<path d="M115.39 158.543C115.04 158.298 114.914 157.845 114.785 157.457C114.442 156.227 114.399 154.934 114.372 153.66C114.946 152.871 115.992 152.545 116.927 152.605C118.005 152.676 118.532 153.724 118.583 154.7L118.402 154.703C118.323 152.982 119.578 152.315 121.127 152.403C121.583 152.411 122.031 152.47 122.479 152.538C122.519 152.565 122.57 152.605 122.601 152.617C122.633 152.617 122.59 152.629 122.601 152.617C123.002 151.982 123.864 151.974 124.516 151.931C125.295 151.891 126.069 151.915 126.848 151.974L126.978 151.982V152.113L126.982 153.077L126.706 153.006L127.414 151.685L127.453 151.609L127.536 151.605C129.537 151.546 133.336 151.665 133.151 154.489L132.813 154.43C133.076 152.585 134.15 152.573 135.719 152.494C137.315 152.379 138.125 153.68 137.975 155.16L137.905 156.116L137.618 155.203C136.992 153.216 138.581 152.319 140.335 152.442C141.884 152.411 143.61 153.371 143.504 155.156L143.115 155.14C143.115 153.656 144.412 152.744 145.8 152.871L146.339 152.922L146.587 152.946C146.182 153.926 145.729 154.882 145.147 155.775C144.676 156.552 143.492 157.897 142.678 156.731L142.942 156.758C141.082 158.69 139.249 158.797 137.397 156.786L137.61 156.814C135.443 158.448 134.362 158.321 132.77 156.08L132.927 156.14C132.777 156.179 132.636 156.231 132.506 156.306C132.306 156.405 132.195 156.568 132.109 156.754C130.446 154.898 128.047 153.537 125.523 153.521C123.03 153.482 120.738 154.803 118.96 156.485C118.433 156.592 117.572 156.409 117.757 155.675L117.812 155.465C118.036 157.084 116.959 158.349 115.382 158.536L115.39 158.543ZM115.39 158.543C116.825 158.361 117.926 157.191 117.765 155.699L117.836 155.703C117.808 155.826 117.812 155.969 117.867 156.084C118.036 156.485 118.681 156.409 118.901 156.421C120.675 154.688 122.998 153.291 125.535 153.315C128.071 153.315 130.465 154.6 132.195 156.425L131.956 156.461C132.148 156.116 132.51 155.969 132.86 155.866L132.954 155.838C133.249 156.235 133.548 156.643 133.91 156.969C135.227 158.294 136.308 157.282 137.551 156.465C139.324 158.389 140.893 158.385 142.706 156.504L142.851 156.37L142.973 156.532C144.058 157.933 145.796 153.847 146.146 153.053L146.292 153.311C145.368 153.172 144.212 153.295 143.748 154.231C143.598 154.505 143.52 154.846 143.512 155.148L143.122 155.132C143.15 154.477 142.831 153.791 142.289 153.402C141.219 152.653 138.215 152.387 137.889 154.093C137.83 154.414 137.873 154.775 137.968 155.084L137.61 155.128C137.775 152.597 135.813 152.617 133.957 153.113C133.41 153.291 133.292 153.914 133.151 154.521L132.813 154.462C132.876 153.926 132.722 153.394 132.337 153.025C131.063 151.935 129.164 151.911 127.564 151.927L127.689 151.847L126.97 153.16L126.691 153.668V153.089L126.699 152.125L126.828 152.268C125.708 152.188 124.516 152.101 123.415 152.335C123.242 152.387 123.081 152.462 122.963 152.577C122.869 152.645 122.81 152.839 122.645 152.863C122.523 152.875 122.444 152.803 122.365 152.748L122.417 152.772C121.249 152.613 119.625 152.331 118.87 153.474C118.65 153.831 118.599 154.275 118.587 154.703L118.406 154.707C118.355 154.255 118.292 153.783 118.036 153.406C117.222 152.228 115.241 152.7 114.458 153.688C114.478 154.842 114.482 156.251 114.808 157.445C114.93 157.833 115.052 158.29 115.394 158.54L115.39 158.543Z" fill="black"/>
<path d="M105.037 109.766C105.328 109.766 105.564 109.528 105.564 109.234C105.564 108.941 105.328 108.703 105.037 108.703C104.746 108.703 104.51 108.941 104.51 109.234C104.51 109.528 104.746 109.766 105.037 109.766Z" fill="black"/>
<path d="M160.358 110C162.202 115.776 158.722 122.853 155.573 127.597C155.046 128.319 154.535 129.045 154 129.755C154.46 128.994 154.94 128.244 155.412 127.49C158.298 122.615 161.699 115.796 160.358 110Z" fill="black"/>
<path d="M155.131 134.452C154.396 131.683 156.959 128.696 158.921 127.034C158.162 128.01 157.01 129.426 156.397 130.485C155.697 131.683 154.997 133.016 155.131 134.452Z" fill="black"/>
<path d="M100.488 138.118C101.829 132.322 98.4274 125.503 95.5413 120.627C95.0734 119.874 94.5898 119.128 94.1298 118.362C94.6645 119.072 95.1757 119.802 95.7026 120.52C98.8482 125.261 102.332 132.342 100.488 138.118Z" fill="black"/>
<path d="M94.1298 113.467C93.9921 114.903 94.692 116.236 95.3959 117.434C96.0092 118.485 97.1653 119.917 97.9202 120.885C95.9581 119.223 93.3945 116.236 94.1298 113.467Z" fill="black"/>
</g>
<defs>
<linearGradient id="paint0_linear_3431_10443" x1="12.1919" y1="117.909" x2="246.886" y2="117.909" gradientUnits="userSpaceOnUse">
<stop stop-color="#593CFA"/>
<stop offset="1" stop-color="#FFD233"/>
</linearGradient>
<clipPath id="clip0_3431_10443">
<rect width="68" height="72" fill="white" transform="translate(94 98)"/>
</clipPath>
</defs>
</svg>
