<svg width="18" height="16" viewBox="0 0 18 16" fill="none" xmlns="http://www.w3.org/2000/svg">
<path fill-rule="evenodd" clip-rule="evenodd" d="M17.6015 7.88517C17.5991 8.19912 17.4521 8.47863 17.2237 8.66034C17.1575 8.713 17.0845 8.75744 17.0062 8.79213L2.58971 15.5591C2.56461 15.5708 2.53904 15.5816 2.51305 15.5912C2.25128 15.6885 1.9671 15.7085 1.69427 15.649C1.42145 15.5895 1.17145 15.4528 0.973991 15.2554C0.77653 15.0579 0.63992 14.8079 0.580386 14.5351C0.522398 14.2694 0.539908 13.9929 0.63072 13.7368L2.58385 7.87739L0.630719 2.01801C0.539907 1.76193 0.522396 1.48541 0.580384 1.21968C0.63992 0.946851 0.776535 0.696854 0.973991 0.499397C1.17145 0.301941 1.42144 0.165327 1.69427 0.105791C1.9671 0.0462554 2.25128 0.0663018 2.51305 0.163548C2.53904 0.173203 2.56461 0.183934 2.58971 0.195715L17.0063 6.96267C17.0845 6.99735 17.1575 7.04178 17.2237 7.09443C17.2733 7.13385 17.3188 7.17769 17.3597 7.22524C17.5089 7.39851 17.5997 7.62348 17.6015 7.86962C17.6016 7.87221 17.6016 7.8748 17.6016 7.87739C17.6016 7.87999 17.6016 7.88258 17.6015 7.88517ZM12.1177 6.87739L2.91953 2.5599L4.3587 6.87739L12.1177 6.87739ZM4.3587 8.87739L12.1177 8.87739L2.91954 13.1949L4.3587 8.87739Z" fill="white"/>
</svg>
